<svg xmlns="http://www.w3.org/2000/svg" viewBox="0 0 48 48" width="48" height="48">
  <defs>
    <linearGradient id="g" x1="4" y1="4" x2="44" y2="44" gradientUnits="userSpaceOnUse">
      <stop stop-color="#7c5cff"/>
      <stop offset="0.5" stop-color="#4ea8ff"/>
      <stop offset="1" stop-color="#36e0c0"/>
    </linearGradient>
  </defs>
  <rect x="2" y="2" width="44" height="44" rx="13" fill="url(#g)"/>
  <path d="M24 9 C25.6 19.4 28.6 22.4 39 24 C28.6 25.6 25.6 28.6 24 39 C22.4 28.6 19.4 25.6 9 24 C19.4 22.4 22.4 19.4 24 9 Z" fill="#fff" fill-opacity="0.96"/>
  <path d="M35 11 C35.5 14 36.5 15 39.5 15.5 C36.5 16 35.5 17 35 20 C34.5 17 33.5 16 30.5 15.5 C33.5 15 34.5 14 35 11 Z" fill="#fff" fill-opacity="0.85"/>
</svg>
